<svg id="Ebene_1" data-name="Ebene 1" xmlns="http://www.w3.org/2000/svg" xmlns:xlink="http://www.w3.org/1999/xlink" viewBox="0 0 425.2 566.93"><defs><style>.cls-1,.cls-4{fill:none;}.cls-2{clip-path:url(#clip-path);}.cls-12,.cls-14,.cls-3{fill:#fff;}.cls-4{stroke:#1d1d1b;stroke-width:1.56px;}.cls-5{fill:#009640;}.cls-6{fill:#52ae32;}.cls-7{fill:#c8d400;}.cls-8{fill:#ffed00;}.cls-9{fill:#f0b200;}.cls-10{fill:#e30613;}.cls-11{fill:#ec6608;}.cls-12{font-size:49.07px;}.cls-12,.cls-14{font-family:Arial-BoldMT, Arial;font-weight:700;}.cls-13{fill:#1d1d1b;}.cls-14{font-size:51.41px;}</style><clipPath id="clip-path"><rect class="cls-1" width="425.2" height="566.93"/></clipPath></defs><g class="cls-2"><g class="cls-2"><rect class="cls-3" width="425.2" height="566.93"/><rect class="cls-3" x="9.29" y="9.29" width="406.63" height="548.36"/><rect class="cls-4" x="9.29" y="9.29" width="406.63" height="548.36"/><polygon class="cls-5" points="21.41 166.33 86.19 166.33 113.74 140.42 86.19 114.51 21.41 114.51 21.41 166.33"/><polygon class="cls-6" points="21.41 227.47 115.48 227.47 143.03 201.56 115.48 175.65 21.41 175.65 21.41 227.47"/><polygon class="cls-7" points="21.41 288.6 144.76 288.6 172.31 262.69 144.76 236.78 21.41 236.78 21.41 288.6"/><polygon class="cls-8" points="21.41 349.74 174.05 349.74 201.6 323.83 174.05 297.92 21.41 297.92 21.41 349.74"/><polygon class="cls-9" points="21.77 410.88 203.34 410.88 230.89 384.97 203.34 359.06 21.77 359.06 21.77 410.88"/><polygon class="cls-10" points="21.77 533.15 261.91 533.15 289.46 507.24 261.91 481.33 21.77 481.33 21.77 533.15"/><polygon class="cls-11" points="21.77 472.01 232.62 472.01 260.17 446.11 232.62 420.2 21.77 420.2 21.77 472.01"/><text class="cls-12" transform="translate(50.96 159.33)">A</text><text class="cls-12" transform="translate(79.96 220.37)">B</text><text class="cls-12" transform="translate(108.91 281.61)">C</text><text class="cls-12" transform="translate(138.26 342.65)">D</text><text class="cls-12" transform="translate(170.31 403.88)">E</text><text class="cls-12" transform="translate(202.55 465.02)">F</text><text class="cls-12" transform="translate(223.6 526.16)">G</text><line class="cls-4" x1="21.41" y1="89.98" x2="405.19" y2="89.98"/><polygon class="cls-10" points="60.71 28.35 23.63 28.35 21.77 28.35 21.77 30.2 21.77 67.28 21.77 69.14 23.63 69.14 60.71 69.14 62.56 69.14 62.56 67.28 62.56 30.2 62.56 28.35 60.71 28.35"/><polygon class="cls-3" points="54.91 44.92 45.98 44.92 45.98 35.99 38.34 35.99 38.34 44.92 29.41 44.92 29.41 52.56 38.34 52.56 38.34 61.49 45.98 61.49 45.98 52.56 54.91 52.56 54.91 44.92"/><path class="cls-13" d="M393.67,59.64a8.13,8.13,0,0,0,10.52-.33,6.79,6.79,0,0,0,2.18-5.09,5.43,5.43,0,0,0-1.16-3.5,5.24,5.24,0,0,0-3.12-1.87c2.18-1.19,3.26-2.78,3.26-4.76a5.31,5.31,0,0,0-1.59-3.77,6.74,6.74,0,0,0-5.13-2,7.89,7.89,0,0,0-3.38.7,5.77,5.77,0,0,0-2.35,1.93,9,9,0,0,0-1.26,3.28l4,.68a3.56,3.56,0,0,1,1-2.25,2.57,2.57,0,0,1,1.9-.77,2.4,2.4,0,0,1,1.8.68,2.43,2.43,0,0,1,.68,1.82,2.74,2.74,0,0,1-.92,2.15,3.78,3.78,0,0,1-2.69.77l-.48,3.54a7.46,7.46,0,0,1,2-.33,2.81,2.81,0,0,1,2.15,1,3.69,3.69,0,0,1,.88,2.6,4,4,0,0,1-.92,2.75,3.05,3.05,0,0,1-4.39.17,4,4,0,0,1-1.09-2.46l-4.2.51a7,7,0,0,0,2.35,4.63M379.91,57a8.64,8.64,0,0,1,.89-1.21c.37-.41,1.24-1.24,2.61-2.5a27.43,27.43,0,0,0,2.84-2.89,12,12,0,0,0,1.74-2.9,7.72,7.72,0,0,0,.55-2.91,5.94,5.94,0,0,0-1.92-4.5,7.39,7.39,0,0,0-5.27-1.8,8.15,8.15,0,0,0-5.1,1.56q-2,1.56-2.42,5.14l4.32.43a4.2,4.2,0,0,1,.93-2.71,2.89,2.89,0,0,1,2.16-.82,2.92,2.92,0,0,1,2.16.78,3,3,0,0,1,.78,2.23,4.77,4.77,0,0,1-.9,2.66,30.63,30.63,0,0,1-3.6,3.71,28.36,28.36,0,0,0-4.88,5.43A10.45,10.45,0,0,0,373.32,61h15.22V57ZM365,42.38a3.88,3.88,0,0,1,1,2,24.59,24.59,0,0,1,.4,5.48,25.33,25.33,0,0,1-.44,5.66,3.45,3.45,0,0,1-1,1.8,2.21,2.21,0,0,1-1.41.5,2.18,2.18,0,0,1-1.4-.5,3.92,3.92,0,0,1-1-2,24.59,24.59,0,0,1-.4-5.48,24.69,24.69,0,0,1,.45-5.67,3.3,3.3,0,0,1,.95-1.8,2.17,2.17,0,0,1,1.41-.5,2.11,2.11,0,0,1,1.4.5m-6.53-1.79c-1.48,1.88-2.23,4.95-2.23,9.21s.68,7.37,2,9.07a6.5,6.5,0,0,0,5.33,2.54,6.15,6.15,0,0,0,5.13-2.32Q371,56.29,371,49.85c0-4.3-.74-7.37-2.21-9.23a6.84,6.84,0,0,0-10.28,0M344.71,57a7.91,7.91,0,0,1,.89-1.21c.36-.41,1.23-1.24,2.6-2.5a28.87,28.87,0,0,0,2.85-2.89,12,12,0,0,0,1.74-2.9,7.91,7.91,0,0,0,.54-2.91,5.93,5.93,0,0,0-1.91-4.5,7.4,7.4,0,0,0-5.27-1.8,8.15,8.15,0,0,0-5.1,1.56q-2,1.56-2.43,5.14l4.33.43a4.14,4.14,0,0,1,.93-2.71,2.86,2.86,0,0,1,2.16-.82,2.92,2.92,0,0,1,2.16.78,3,3,0,0,1,.78,2.23,4.77,4.77,0,0,1-.9,2.66,30.63,30.63,0,0,1-3.6,3.71,28.36,28.36,0,0,0-4.88,5.43A10.46,10.46,0,0,0,338.11,61h15.22V57Zm-28.25-5.58a4,4,0,0,1,.91-2.81,3.14,3.14,0,0,1,4.61-.06,4.18,4.18,0,0,1,1,2.87Zm5.19,6.18a2.64,2.64,0,0,1-1.71.56,3.29,3.29,0,0,1-2.51-1.08,4.36,4.36,0,0,1-1.05-3h10.88q.09-5-2-7.41a7.29,7.29,0,0,0-5.78-2.42,7,7,0,0,0-5.39,2.31,9,9,0,0,0-2.14,6.39,9.36,9.36,0,0,0,1.63,5.66q2.06,2.79,6.33,2.79a7.76,7.76,0,0,0,4.51-1.24A7.13,7.13,0,0,0,327,56.53l-4.33-.73a3.35,3.35,0,0,1-1.05,1.79m-12.9-13h-4.34V61h4.34Zm0-6.24h-4.34v4h4.34ZM289.56,48.78a3.23,3.23,0,0,1,2.58-1.22,3.34,3.34,0,0,1,2.65,1.24,5.75,5.75,0,0,1,1.06,3.79,5.43,5.43,0,0,1-1.1,3.68,3.46,3.46,0,0,1-2.69,1.25,3.15,3.15,0,0,1-2.5-1.22,5.94,5.94,0,0,1-1-3.82,5.71,5.71,0,0,1,1-3.7m-4.9,13.85a4.48,4.48,0,0,0,1.74,3.62c1.17,1,3.14,1.43,5.92,1.43a12.23,12.23,0,0,0,3.66-.46,6.08,6.08,0,0,0,2.31-1.28,5.48,5.48,0,0,0,1.34-2.26,14.62,14.62,0,0,0,.48-4.34V44.61h-4.06v2.3a6,6,0,0,0-5-2.67,6.41,6.41,0,0,0-4.93,2.18q-2,2.17-2,6.3a9.53,9.53,0,0,0,1.51,5.51A6.06,6.06,0,0,0,290.85,61a5.88,5.88,0,0,0,4.92-2.65v2.39a6.7,6.7,0,0,1-.2,2,2.13,2.13,0,0,1-.87,1.1,5.07,5.07,0,0,1-2.55.51,3.3,3.3,0,0,1-1.95-.46,1.74,1.74,0,0,1-.57-1.19l-5-.6c0,.2,0,.38,0,.52M276.91,56a25.13,25.13,0,0,1,.37-5.5,3.42,3.42,0,0,1,1-1.81,2.41,2.41,0,0,1,1.55-.51,3.77,3.77,0,0,1,2,.72l1.34-3.79a5.46,5.46,0,0,0-2.86-.82,3.4,3.4,0,0,0-1.87.53,7,7,0,0,0-1.87,2.17V44.61h-4V61h4.34Zm-18.49-4.54a4,4,0,0,1,.91-2.81,3.12,3.12,0,0,1,4.6-.06,4.18,4.18,0,0,1,1,2.87Zm5.19,6.18a2.69,2.69,0,0,1-1.72.56,3.27,3.27,0,0,1-2.5-1.08,4.36,4.36,0,0,1-1.05-3h10.88q.09-5-2-7.41a7.28,7.28,0,0,0-5.78-2.42A7,7,0,0,0,256,46.55a9.07,9.07,0,0,0-2.13,6.39,9.43,9.43,0,0,0,1.62,5.66q2.06,2.79,6.34,2.79a7.72,7.72,0,0,0,4.5-1.24A7.15,7.15,0,0,0,269,56.53l-4.33-.73a3.48,3.48,0,0,1-1.05,1.79m-12.86-6.77a13.58,13.58,0,0,0-.24-2.92,4.76,4.76,0,0,0-.85-1.82,4.36,4.36,0,0,0-1.8-1.32,6.43,6.43,0,0,0-2.63-.52A6.6,6.6,0,0,0,239.82,47V44.61h-4V61h4.34V53.59a13.73,13.73,0,0,1,.34-3.77,3.13,3.13,0,0,1,1.22-1.64,3.53,3.53,0,0,1,2-.62,2.59,2.59,0,0,1,1.51.44,2.43,2.43,0,0,1,.9,1.21,13.19,13.19,0,0,1,.28,3.44V61h4.34ZM225.17,42.6,229.42,38h-4.86l-2.14,4.62Zm-3.69,8.81a4,4,0,0,1,.91-2.81,3.14,3.14,0,0,1,4.61-.06,4.18,4.18,0,0,1,1,2.87Zm5.19,6.18a2.64,2.64,0,0,1-1.71.56,3.29,3.29,0,0,1-2.51-1.08,4.36,4.36,0,0,1-1-3h10.88q.09-5-2-7.41a7.29,7.29,0,0,0-5.78-2.42,7,7,0,0,0-5.4,2.31A9.07,9.07,0,0,0,217,52.94a9.43,9.43,0,0,0,1.62,5.66q2.07,2.79,6.34,2.79a7.76,7.76,0,0,0,4.51-1.24,7.13,7.13,0,0,0,2.63-3.62l-4.33-.73a3.35,3.35,0,0,1-1.05,1.79m-10.95-7h-8.54V55h8.54Zm-22.38.77a4,4,0,0,1,.91-2.81,3.14,3.14,0,0,1,4.61-.06,4.23,4.23,0,0,1,1,2.87Zm5.19,6.18a2.64,2.64,0,0,1-1.71.56,3.29,3.29,0,0,1-2.51-1.08,4.36,4.36,0,0,1-1.05-3h10.88q.09-5-2-7.41a7.31,7.31,0,0,0-5.78-2.42,7,7,0,0,0-5.4,2.31,9.07,9.07,0,0,0-2.13,6.39,9.43,9.43,0,0,0,1.62,5.66c1.37,1.86,3.49,2.79,6.34,2.79a7.72,7.72,0,0,0,4.5-1.24,7.15,7.15,0,0,0,2.64-3.62l-4.33-.73a3.48,3.48,0,0,1-1.05,1.79m-14.43-13V38.82l-4.36,2.53v3.26h-2v3.46h2v7.16a21.52,21.52,0,0,0,.14,3.06,3.91,3.91,0,0,0,.61,1.69,3,3,0,0,0,1.38,1,5.52,5.52,0,0,0,2.12.39,8.67,8.67,0,0,0,3.43-.64l-.37-3.37a5.82,5.82,0,0,1-1.75.41,1.23,1.23,0,0,1-.73-.21,1,1,0,0,1-.39-.55,18.08,18.08,0,0,1-.08-2.34V48.07h3V44.61Zm-10.54,0V38.82l-4.36,2.53v3.26h-2v3.46h2v7.16a21.52,21.52,0,0,0,.14,3.06A4,4,0,0,0,170,60a3,3,0,0,0,1.38,1,5.52,5.52,0,0,0,2.12.39,8.67,8.67,0,0,0,3.43-.64l-.37-3.37a5.82,5.82,0,0,1-1.75.41,1.23,1.23,0,0,1-.73-.21,1,1,0,0,1-.39-.55,18.08,18.08,0,0,1-.08-2.34V48.07h3V44.61Zm-18.9,6.8a4,4,0,0,1,.91-2.81,3,3,0,0,1,2.35-1,3,3,0,0,1,2.25,1,4.18,4.18,0,0,1,1,2.87Zm5.19,6.18a2.67,2.67,0,0,1-1.72.56,3.27,3.27,0,0,1-2.5-1.08,4.36,4.36,0,0,1-1-3h10.88q.09-5-2-7.41a7.31,7.31,0,0,0-5.78-2.42,7,7,0,0,0-5.4,2.31,9.07,9.07,0,0,0-2.13,6.39,9.43,9.43,0,0,0,1.62,5.66q2.06,2.79,6.34,2.79a7.72,7.72,0,0,0,4.5-1.24,7.15,7.15,0,0,0,2.64-3.62l-4.33-.73a3.48,3.48,0,0,1-1.05,1.79M146.9,61V44.61h-4.34v6.92a17.3,17.3,0,0,1-.33,4.43,3.09,3.09,0,0,1-1.2,1.52,3.47,3.47,0,0,1-2,.61,2.61,2.61,0,0,1-1.6-.46,2.26,2.26,0,0,1-.88-1.23,21,21,0,0,1-.24-4.25V44.61H132V55a9.15,9.15,0,0,0,.59,3.63,4.31,4.31,0,0,0,1.9,2,6,6,0,0,0,3,.72,6.64,6.64,0,0,0,3.08-.75,6.48,6.48,0,0,0,2.36-2.07V61Zm-24.43-4.4A3.35,3.35,0,0,1,119.84,58a3.2,3.2,0,0,1-2.52-1.19,6,6,0,0,1-1-3.91,6.08,6.08,0,0,1,1.06-4A3.31,3.31,0,0,1,120,47.64a3.24,3.24,0,0,1,2.58,1.23,5.79,5.79,0,0,1,1,3.75,6.12,6.12,0,0,1-1.12,4m5.33,10.65V44.61h-4V47a6.44,6.44,0,0,0-2.13-2.1,5.49,5.49,0,0,0-2.84-.7,6.41,6.41,0,0,0-5,2.22,8.85,8.85,0,0,0-2,6.17A9.83,9.83,0,0,0,114,59.29a5.8,5.8,0,0,0,4.6,2.1,6,6,0,0,0,2.74-.64A6.07,6.07,0,0,0,123.46,59v8.26ZM108.28,44.61h-4.34V61h4.34Zm0-6.24h-4.34v4h4.34ZM98,44.61V38.82L93.6,41.35v3.26h-2v3.46h2v7.16a20.06,20.06,0,0,0,.14,3.06A3.91,3.91,0,0,0,94.35,60a3,3,0,0,0,1.38,1,5.52,5.52,0,0,0,2.12.39,8.67,8.67,0,0,0,3.43-.64l-.37-3.37a5.82,5.82,0,0,1-1.75.41,1.23,1.23,0,0,1-.73-.21A1,1,0,0,1,98,57,16.24,16.24,0,0,1,98,54.69V48.07h3V44.61ZM89.55,61V57.21H76.89V51H88.27V47.22H76.89v-5H89.12V38.37H72.32V61Z"/></g><polygon class="cls-13" points="292.71 507.24 326.74 539.02 405.35 539.02 405.35 475.46 326.73 475.46 292.71 507.24"/><g class="cls-2"><text class="cls-14" transform="translate(344.68 526.13)">G</text></g></g></svg>